<?xml version="1.0" encoding="UTF-8" standalone="no" ?>
<!DOCTYPE svg PUBLIC "-//W3C//DTD SVG 1.1//EN" "http://www.w3.org/Graphics/SVG/1.1/DTD/svg11.dtd">
<svg xmlns="http://www.w3.org/2000/svg" xmlns:xlink="http://www.w3.org/1999/xlink" version="1.1" width="1080" height="1080" viewBox="0 0 1080 1080" xml:space="preserve">
<desc>Created with Fabric.js 5.2.4</desc>
<defs>
</defs>
<g transform="matrix(1 0 0 1 540 540)" id="cd1b2b77-ec29-404a-9e2d-f0f3aef895f9"  >
<rect style="stroke: none; stroke-width: 1; stroke-dasharray: none; stroke-linecap: butt; stroke-dashoffset: 0; stroke-linejoin: miter; stroke-miterlimit: 4; fill: rgb(255,255,255); fill-rule: nonzero; opacity: 1; visibility: hidden;" vector-effect="non-scaling-stroke"  x="-540" y="-540" rx="0" ry="0" width="1080" height="1080" />
</g>
<g transform="matrix(1 0 0 1 540 540)" id="751ea2f0-36aa-4573-95b5-f6de7aa73e3d"  >
</g>
<g transform="matrix(1 0 0 1 540 540)" id="ddadf60b-d989-4380-8e2e-0c18ffaef5bf"  >
<path style="stroke: rgb(0,0,0); stroke-width: 0; stroke-dasharray: none; stroke-linecap: butt; stroke-dashoffset: 0; stroke-linejoin: miter; stroke-miterlimit: 4; fill: rgb(255,255,255); fill-rule: nonzero; opacity: 1;" vector-effect="non-scaling-stroke"  transform=" translate(-12, -12)" d="M 12 0 C 8.74 0 8.333 0.015 7.053 0.072 C 5.775 0.132 4.905 0.333 4.14 0.63 C 3.3509999999999995 0.9359999999999999 2.6809999999999996 1.347 2.014 2.014 C 1.347 2.6809999999999996 0.935 3.35 0.63 4.14 C 0.333 4.905 0.131 5.775 0.072 7.053 C 0.012 8.333 0 8.74 0 12 C 0 15.26 0.015 15.667 0.072 16.947 C 0.132 18.224 0.333 19.095 0.63 19.86 C 0.9359999999999999 20.648 1.347 21.319 2.014 21.986 C 2.681 22.652 3.3499999999999996 23.065 4.14 23.37 C 4.906 23.666 5.776 23.869 7.052999999999999 23.928 C 8.333 23.988 8.74 24 12 24 C 15.26 24 15.667 23.985 16.947 23.928 C 18.224 23.868000000000002 19.095 23.666 19.86 23.37 C 20.648 23.064 21.319 22.652 21.986 21.986 C 22.652 21.319 23.065 20.651 23.37 19.86 C 23.666 19.095 23.869 18.224 23.928 16.947 C 23.988 15.667 24 15.26 24 12 C 24 8.74 23.985 8.333 23.928 7.053 C 23.868000000000002 5.776 23.666 4.904 23.37 4.140000000000001 C 23.064 3.3510000000000004 22.652 2.6810000000000005 21.986 2.0140000000000007 C 21.319 1.347 20.651 0.935 19.86 0.63 C 19.095 0.333 18.224 0.131 16.947 0.07199999999999995 C 15.667 0.012 15.26 0 12 0 z M 12 2.16 C 15.203 2.16 15.585 2.176 16.85 2.2310000000000003 C 18.020000000000003 2.2860000000000005 18.655 2.4800000000000004 19.077 2.6460000000000004 C 19.639000000000003 2.8630000000000004 20.037000000000003 3.123 20.459000000000003 3.5420000000000003 C 20.878000000000004 3.962 21.138 4.361000000000001 21.355000000000004 4.923 C 21.519000000000005 5.345 21.715000000000003 5.98 21.768000000000004 7.15 C 21.825000000000003 8.416 21.838000000000005 8.796 21.838000000000005 12 C 21.838000000000005 15.204 21.823000000000004 15.585 21.764000000000003 16.85 C 21.703000000000003 18.020000000000003 21.508000000000003 18.655 21.343000000000004 19.077 C 21.119000000000003 19.639000000000003 20.864000000000004 20.037000000000003 20.444000000000003 20.459000000000003 C 20.025000000000002 20.878000000000004 19.62 21.138 19.064000000000004 21.355000000000004 C 18.644000000000002 21.519000000000005 17.999000000000002 21.715000000000003 16.829000000000004 21.768000000000004 C 15.555000000000003 21.825000000000003 15.180000000000003 21.838000000000005 11.970000000000004 21.838000000000005 C 8.759000000000004 21.838000000000005 8.384000000000004 21.823000000000004 7.111000000000004 21.764000000000003 C 5.940000000000004 21.703000000000003 5.295000000000004 21.508000000000003 4.8750000000000036 21.343000000000004 C 4.306000000000004 21.119000000000003 3.9150000000000036 20.864000000000004 3.4960000000000035 20.444000000000003 C 3.0750000000000037 20.025000000000002 2.8060000000000036 19.62 2.5960000000000036 19.064000000000004 C 2.4310000000000036 18.644000000000002 2.2370000000000037 17.999000000000002 2.1760000000000037 16.829000000000004 C 2.131000000000004 15.569000000000004 2.1150000000000038 15.180000000000003 2.1150000000000038 11.985000000000003 C 2.1150000000000038 8.789000000000003 2.131000000000004 8.399000000000003 2.1760000000000037 7.124000000000003 C 2.2370000000000037 5.954000000000003 2.4310000000000036 5.310000000000003 2.5960000000000036 4.890000000000003 C 2.8060000000000036 4.320000000000003 3.0750000000000037 3.9300000000000033 3.4960000000000035 3.509000000000003 C 3.9150000000000036 3.090000000000003 4.306000000000004 2.820000000000003 4.8750000000000036 2.611000000000003 C 5.2950000000000035 2.445000000000003 5.926000000000004 2.2500000000000027 7.096000000000004 2.190000000000003 C 8.371000000000004 2.145000000000003 8.746000000000004 2.130000000000003 11.955000000000004 2.130000000000003 L 12.000000000000004 2.160000000000003 z M 12 5.838 C 8.595 5.838 5.838 8.597999999999999 5.838 12 C 5.838 15.405 8.597999999999999 18.162 12 18.162 C 15.405 18.162 18.162 15.402 18.162 12 C 18.162 8.595 15.402 5.838 12 5.838 z M 12 16 C 9.79 16 8 14.21 8 12 C 8 9.79 9.79 8 12 8 C 14.21 8 16 9.79 16 12 C 16 14.21 14.21 16 12 16 z M 19.846 5.595000000000001 C 19.846 6.390000000000001 19.2 7.035 18.406 7.035 C 17.610999999999997 7.035 16.965999999999998 6.389 16.965999999999998 5.595000000000001 C 16.965999999999998 4.801 17.612 4.156000000000001 18.406 4.156000000000001 C 19.198999999999998 4.155 19.846 4.801 19.846 5.595000000000001 z" stroke-linecap="round" />
</g>
</svg>