<?xml version="1.0" encoding="UTF-8" standalone="no" ?>
<!DOCTYPE svg PUBLIC "-//W3C//DTD SVG 1.1//EN" "http://www.w3.org/Graphics/SVG/1.1/DTD/svg11.dtd">
<svg xmlns="http://www.w3.org/2000/svg" xmlns:xlink="http://www.w3.org/1999/xlink" version="1.1" width="1080" height="1080" viewBox="0 0 1080 1080" xml:space="preserve">
<desc>Created with Fabric.js 5.2.4</desc>
<defs>
</defs>
<g transform="matrix(1 0 0 1 540 540)" id="cdfb767f-42af-4e82-b4f0-94800ac3f96d"  >
<rect style="stroke: none; stroke-width: 1; stroke-dasharray: none; stroke-linecap: butt; stroke-dashoffset: 0; stroke-linejoin: miter; stroke-miterlimit: 4; fill: rgb(255,255,255); fill-rule: nonzero; opacity: 1; visibility: hidden;" vector-effect="non-scaling-stroke"  x="-540" y="-540" rx="0" ry="0" width="1080" height="1080" />
</g>
<g transform="matrix(1 0 0 1 540 540)" id="b8e0bf17-d6ff-414b-b445-ac53b6ed1bf6"  >
</g>
<g transform="matrix(1 0 0 1 540 540)" id="51bbb8be-5def-4016-97c7-3901025fd74c"  >
<path style="stroke: rgb(0,0,0); stroke-width: 0; stroke-dasharray: none; stroke-linecap: butt; stroke-dashoffset: 0; stroke-linejoin: miter; stroke-miterlimit: 4; fill: rgb(255,255,255); fill-rule: nonzero; opacity: 1;" vector-effect="non-scaling-stroke"  transform=" translate(-12, -12)" d="M 12.525 0.02 C 13.835 0 15.135 0.01 16.435000000000002 0 C 16.515 1.53 17.065 3.09 18.185000000000002 4.17 C 19.305000000000003 5.28 20.885 5.79 22.425000000000004 5.96 L 22.425000000000004 9.99 C 20.985000000000003 9.94 19.535000000000004 9.64 18.225000000000005 9.02 C 17.655000000000005 8.76 17.125000000000004 8.43 16.605000000000004 8.09 C 16.595000000000002 11.01 16.615000000000006 13.93 16.585000000000004 16.84 C 16.505000000000006 18.24 16.045000000000005 19.63 15.235000000000005 20.78 C 13.925000000000004 22.700000000000003 11.655000000000005 23.950000000000003 9.325000000000005 23.990000000000002 C 7.895000000000005 24.07 6.465000000000005 23.680000000000003 5.2450000000000045 22.96 C 3.2250000000000045 21.77 1.8050000000000046 19.59 1.5950000000000046 17.25 C 1.5750000000000046 16.75 1.5650000000000046 16.25 1.5850000000000046 15.76 C 1.7650000000000046 13.86 2.7050000000000045 12.04 4.1650000000000045 10.8 C 5.825000000000005 9.360000000000001 8.145000000000005 8.670000000000002 10.315000000000005 9.08 C 10.335000000000004 10.56 10.275000000000006 12.04 10.275000000000006 13.52 C 9.285000000000005 13.2 8.125000000000005 13.29 7.255000000000006 13.889999999999999 C 6.625000000000006 14.299999999999999 6.145000000000006 14.93 5.895000000000006 15.639999999999999 C 5.685000000000006 16.15 5.745000000000005 16.709999999999997 5.755000000000006 17.25 C 5.995000000000006 18.89 7.575000000000006 20.27 9.255000000000006 20.12 C 10.375000000000007 20.11 11.445000000000006 19.46 12.025000000000006 18.51 C 12.215000000000005 18.180000000000003 12.425000000000006 17.84 12.435000000000006 17.450000000000003 C 12.535000000000005 15.660000000000004 12.495000000000006 13.880000000000003 12.505000000000006 12.090000000000003 C 12.515000000000006 8.060000000000002 12.495000000000006 4.040000000000003 12.525000000000006 0.020000000000003126 z" stroke-linecap="round" />
</g>
</svg>